<svg width="26" height="25" viewBox="0 0 26 25" fill="none" xmlns="http://www.w3.org/2000/svg">
<path d="M25.5 12.4875C25.5 5.59375 19.9 0 13 0C6.1 0 0.5 5.59375 0.5 12.4875C0.5 16.2844 2.225 19.7062 4.925 22.0031C4.95 22.0281 4.975 22.0281 4.975 22.0531C5.2 22.2281 5.425 22.4031 5.675 22.5781C5.8 22.6531 5.9 22.7516 6.025 22.8516C8.09073 24.2521 10.5292 25.0006 13.025 25C15.5208 25.0006 17.9593 24.2521 20.025 22.8516C20.15 22.7766 20.25 22.6781 20.375 22.6016C20.6 22.4281 20.85 22.2531 21.075 22.0781C21.1 22.0531 21.125 22.0531 21.125 22.0281C23.775 19.7047 25.5 16.2844 25.5 12.4875ZM13 23.4266C10.65 23.4266 8.5 22.6766 6.725 21.4281C6.75 21.2281 6.8 21.0297 6.85 20.8297C6.99897 20.2877 7.21745 19.7672 7.5 19.2813C7.775 18.8063 8.1 18.3813 8.5 18.0063C8.875 17.6313 9.325 17.2828 9.775 17.0078C10.25 16.7328 10.75 16.5328 11.3 16.3828C11.8543 16.2334 12.4259 16.1583 13 16.1594C14.7041 16.1473 16.3457 16.801 17.575 17.9813C18.15 18.5563 18.6 19.2313 18.925 20.0047C19.1 20.4547 19.225 20.9297 19.3 21.4281C17.455 22.7252 15.2554 23.423 13 23.4266ZM9.175 11.8641C8.95472 11.3597 8.84395 10.8144 8.85 10.2641C8.85 9.71562 8.95 9.16562 9.175 8.66563C9.4 8.16563 9.7 7.71719 10.075 7.34219C10.45 6.96719 10.9 6.66875 11.4 6.44375C11.9 6.21875 12.45 6.11875 13 6.11875C13.575 6.11875 14.1 6.21875 14.6 6.44375C15.1 6.66875 15.55 6.96875 15.925 7.34219C16.3 7.71719 16.6 8.16719 16.825 8.66563C17.05 9.16562 17.15 9.71562 17.15 10.2641C17.15 10.8391 17.05 11.3641 16.825 11.8625C16.6079 12.3551 16.3029 12.8041 15.925 13.1875C15.5415 13.5648 15.0925 13.8693 14.6 14.0859C13.5669 14.5105 12.4081 14.5105 11.375 14.0859C10.8825 13.8693 10.4335 13.5648 10.05 13.1875C9.67159 12.8097 9.3739 12.3604 9.175 11.8641ZM20.775 20.1547C20.775 20.1047 20.75 20.0797 20.75 20.0297C20.5041 19.2475 20.1417 18.5069 19.675 17.8328C19.2078 17.1537 18.6337 16.5548 17.975 16.0594C17.4719 15.6809 16.9266 15.3621 16.35 15.1094C16.6123 14.9363 16.8554 14.7357 17.075 14.5109C17.4477 14.143 17.775 13.7317 18.05 13.2859C18.6037 12.3763 18.8896 11.3289 18.875 10.2641C18.8827 9.4758 18.7296 8.69425 18.425 7.96719C18.1243 7.26662 17.6914 6.63056 17.15 6.09375C16.6094 5.56255 15.9732 5.13842 15.275 4.84375C14.5467 4.53968 13.7642 4.3871 12.975 4.39531C12.1857 4.38759 11.4032 4.5407 10.675 4.84531C9.97071 5.13936 9.33298 5.57248 8.8 6.11875C8.26881 6.65873 7.84468 7.2944 7.55 7.99219C7.24539 8.71925 7.09227 9.5008 7.1 10.2891C7.1 10.8391 7.175 11.3641 7.325 11.8625C7.475 12.3875 7.675 12.8625 7.95 13.3109C8.2 13.7609 8.55 14.1609 8.925 14.5359C9.15 14.7609 9.4 14.9594 9.675 15.1344C9.09662 15.3938 8.55112 15.7211 8.05 16.1094C7.4 16.6094 6.825 17.2078 6.35 17.8578C5.87853 18.5291 5.51575 19.2705 5.275 20.0547C5.25 20.1047 5.25 20.1547 5.25 20.1797C3.275 18.1812 2.05 15.4844 2.05 12.4875C2.05 6.46875 6.975 1.54844 13 1.54844C19.025 1.54844 23.95 6.46875 23.95 12.4875C23.9467 15.3624 22.8052 18.1191 20.775 20.1547Z" fill="white"/>
</svg>
