<svg width="25" height="24" viewBox="0 0 25 24" fill="none" xmlns="http://www.w3.org/2000/svg">
<path d="M7.29175 17.013L11.8886 16.998L21.922 7.45802C22.3157 7.08002 22.5324 6.57802 22.5324 6.04402C22.5324 5.51002 22.3157 5.00802 21.922 4.63002L20.2699 3.04402C19.4824 2.28802 18.1084 2.29202 17.3272 3.04102L7.29175 12.583V17.013ZM18.797 4.45802L20.4522 6.04102L18.7886 7.62302L17.1365 6.03802L18.797 4.45802ZM9.37508 13.417L15.6563 7.44402L17.3084 9.03002L11.0282 15.001L9.37508 15.006V13.417Z" fill="white"/>
<path d="M5.20833 21H19.7917C20.9406 21 21.875 20.103 21.875 19V10.332L19.7917 12.332V19H8.49792C8.47083 19 8.44271 19.01 8.41563 19.01C8.38125 19.01 8.34687 19.001 8.31146 19H5.20833V5H12.3406L14.424 3H5.20833C4.05937 3 3.125 3.897 3.125 5V19C3.125 20.103 4.05937 21 5.20833 21Z" fill="white"/>
</svg>
