<svg width="20" height="27" viewBox="0 0 20 27" fill="none" xmlns="http://www.w3.org/2000/svg">
<path d="M1 12.875C1 10.5175 1 9.34 1.7325 8.6075C2.465 7.875 3.6425 7.875 6 7.875H13.5C15.8575 7.875 17.035 7.875 17.7675 8.6075C18.5 9.34 18.5 10.5175 18.5 12.875V14.125C18.5 16.4825 18.5 17.66 17.7675 18.3925C17.035 19.125 15.8575 19.125 13.5 19.125H6C3.6425 19.125 2.465 19.125 1.7325 18.3925C1 17.66 1 16.4825 1 14.125V12.875Z" stroke="white" stroke-width="1.875"/>
<path opacity="0.5" d="M18.5 1V1.625C18.5 2.4538 18.1708 3.24866 17.5847 3.83471C16.9987 4.42076 16.2038 4.75 15.375 4.75H4.125C3.2962 4.75 2.50134 4.42076 1.91529 3.83471C1.32924 3.24866 1 2.4538 1 1.625V1M18.5 26V25.375C18.5 24.5462 18.1708 23.7513 17.5847 23.1653C16.9987 22.5792 16.2038 22.25 15.375 22.25H4.125C3.2962 22.25 2.50134 22.5792 1.91529 23.1653C1.32924 23.7513 1 24.5462 1 25.375V26" stroke="white" stroke-width="1.875" stroke-linecap="round"/>
</svg>
