<svg width="25" height="25" viewBox="0 0 25 25" fill="none" xmlns="http://www.w3.org/2000/svg">
<path d="M14.1304 1.63043C14.1304 1.19802 13.9587 0.783309 13.6529 0.477543C13.3471 0.171777 12.9324 0 12.5 0C12.0676 0 11.6529 0.171777 11.3471 0.477543C11.0413 0.783309 10.8696 1.19802 10.8696 1.63043V10.8696H1.63043C1.19802 10.8696 0.783309 11.0413 0.477543 11.3471C0.171777 11.6529 0 12.0676 0 12.5C0 12.9324 0.171777 13.3471 0.477543 13.6529C0.783309 13.9587 1.19802 14.1304 1.63043 14.1304H10.8696V23.3696C10.8696 23.802 11.0413 24.2167 11.3471 24.5225C11.6529 24.8282 12.0676 25 12.5 25C12.9324 25 13.3471 24.8282 13.6529 24.5225C13.9587 24.2167 14.1304 23.802 14.1304 23.3696V14.1304H23.3696C23.802 14.1304 24.2167 13.9587 24.5225 13.6529C24.8282 13.3471 25 12.9324 25 12.5C25 12.0676 24.8282 11.6529 24.5225 11.3471C24.2167 11.0413 23.802 10.8696 23.3696 10.8696H14.1304V1.63043Z" fill="white"/>
</svg>
