<svg width="25" height="25" viewBox="0 0 25 25" fill="none" xmlns="http://www.w3.org/2000/svg">
<path d="M22.9544 16.4474L20.5597 14.7368C20.9544 13.3158 20.9807 11.7763 20.5597 10.2368L22.9544 8.55263L21.0465 5.26316L18.3755 6.47368C17.336 5.42105 16.0202 4.60526 14.4807 4.22368L14.2176 1.31579H10.4018L10.1386 4.22368C8.59911 4.60526 7.28331 5.42105 6.24384 6.47368L3.57277 5.26316L1.66487 8.55263L4.05962 10.2368C3.63856 11.7763 3.66488 13.3158 4.05962 14.7368L1.66487 16.4474L3.57277 19.7368L6.24384 18.5132C7.28331 19.5526 8.59911 20.3421 10.1386 20.75L10.4018 23.6842H14.2176L14.4807 20.75C16.0202 20.3421 17.336 19.5526 18.3755 18.5132L21.0465 19.7368L22.9544 16.4474ZM14.9412 0C15.2965 0 15.5991 0.263158 15.5991 0.605263L15.836 3.28947C16.836 3.65789 17.7307 4.19737 18.5334 4.8421L20.9676 3.69737C21.2702 3.53947 21.6518 3.64474 21.836 3.94737L24.4676 8.55263C24.6518 8.82895 24.5466 9.21053 24.2571 9.40789L22.0597 10.9474C22.2308 12 22.2176 13.0395 22.0597 14.0526L24.2571 15.5921C24.5466 15.7895 24.6518 16.1711 24.4676 16.4474L21.836 21.0526C21.6518 21.3289 21.2702 21.4342 20.9676 21.2763L18.5334 20.1447C17.7307 20.7895 16.836 21.3158 15.836 21.7105L15.5991 24.3421C15.5991 24.7237 15.2965 25 14.9412 25H9.67806C9.50358 25 9.33624 24.9307 9.21286 24.8073C9.08948 24.6839 9.02017 24.5166 9.02017 24.3421L8.78332 21.7105C7.78332 21.3158 6.88858 20.7895 6.08594 20.1447L3.65172 21.2763C3.34909 21.4342 2.96751 21.3289 2.78329 21.0526L0.151702 16.4474C-0.0325092 16.1711 0.0727545 15.7895 0.36223 15.5921L2.55961 14.0526C2.40171 13.0395 2.38855 12 2.55961 10.9474L0.36223 9.40789C0.0727545 9.21053 -0.0325092 8.82895 0.151702 8.55263L2.78329 3.94737C2.96751 3.64474 3.34909 3.53947 3.65172 3.69737L6.08594 4.8421C6.88858 4.19737 7.78332 3.65789 8.78332 3.28947L9.02017 0.605263C9.02017 0.263158 9.3228 0 9.67806 0H14.9412ZM12.3097 7.89474C13.5311 7.89474 14.7024 8.37993 15.5661 9.24359C16.4297 10.1072 16.9149 11.2786 16.9149 12.5C16.9149 13.7214 16.4297 14.8928 15.5661 15.7564C14.7024 16.6201 13.5311 17.1053 12.3097 17.1053C11.0883 17.1053 9.91688 16.6201 9.05323 15.7564C8.18957 14.8928 7.70437 13.7214 7.70437 12.5C7.70437 11.2786 8.18957 10.1072 9.05323 9.24359C9.91688 8.37993 11.0883 7.89474 12.3097 7.89474ZM12.3097 9.21053C11.4372 9.21053 10.6005 9.55709 9.98363 10.174C9.36674 10.7909 9.02017 11.6276 9.02017 12.5C9.02017 13.3724 9.36674 14.2091 9.98363 14.826C10.6005 15.4429 11.4372 15.7895 12.3097 15.7895C13.1821 15.7895 14.0188 15.4429 14.6357 14.826C15.2526 14.2091 15.5991 13.3724 15.5991 12.5C15.5991 11.6276 15.2526 10.7909 14.6357 10.174C14.0188 9.55709 13.1821 9.21053 12.3097 9.21053Z" fill="white"/>
</svg>
